PathFileType	4	(X/Y/Z)	Patient4_TMGait_0pt3_02_left_12.trc.trc
DataRate	CameraRate	NumFrames	NumMarkers	Units	OrigDataRate	OrigDataStartFrame	OrigNumFrames
51.851851851852	51.851851851852	4	33	mm	51.851851851852	36	       141
Frame#	Time	Sacral			L.Shoulder			Chest			R.Shoulder			Neck			R.ASIS			L.ASIS			R.Thigh.Superior			R.Thigh.Lateral			R.Thigh.Inferior			R.Patella			L.Thigh.Superior			L.Thigh.Lateral			L.Thigh.Inferior			L.Patella			L.Shank.Superior			L.Shank.Lateral			L.Shank.Inferior			R.Shank.Superior			R.Shank.Lateral			R.Shank.Inferior			R.Heel			R.Midfoot.Superior			R.Midfoot.Lateral			R.Toe			L.Heel			L.Midfoot.Lateral			L.Midfoot.Superior			L.Toe			L.Elbow			L.Wrist			R.Elbow			R.Wrist			
		X1	Y1	Z1	X2	Y2	Z2	X3	Y3	Z3	X4	Y4	Z4	X5	Y5	Z5	X6	Y6	Z6	X7	Y7	Z7	X8	Y8	Z8	X9	Y9	Z9	X10	Y10	Z10	X11	Y11	Z11	X12	Y12	Z12	X13	Y13	Z13	X14	Y14	Z14	X15	Y15	Z15	X16	Y16	Z16	X17	Y17	Z17	X18	Y18	Z18	X19	Y19	Z19	X20	Y20	Z20	X21	Y21	Z21	X22	Y22	Z22	X23	Y23	Z23	X24	Y24	Z24	X25	Y25	Z25	X26	Y26	Z26	X27	Y27	Z27	X28	Y28	Z28	X29	Y29	Z29	X30	Y30	Z30	X31	Y31	Z31	X32	Y32	Z32	X33	Y33	Z33	

36	24.015000000000	742.253215641609	1014.653372339973	506.168020244800	919.600014321695	1408.486706572735	265.325479542690	1045.906273676445	1343.564400222171	410.947298321996	1001.167200124876	1439.738535413511	587.094992326404	940.312208371243	1484.474303793260	414.150679367102	979.137746659972	933.580135575686	592.228319747650	930.001960107626	946.954704238619	322.438460891618	979.964876874877	720.135334640757	565.914739756981	890.347764609554	622.938628181618	639.045626572420	945.600337169579	557.902978141030	552.537706477735	928.478716287503	463.137677885608	565.627902902927	1002.669591705253	759.978177878173	356.302233506472	933.573177482143	633.860269778953	293.882321707334	1031.908866971733	569.878871001903	353.495975574990	1042.163627867682	499.461708954358	359.642100418940	1019.032938772983	424.334964969604	349.729606072164	935.733292203882	307.469205900564	292.739370327821	992.232010544551	196.467072585370	361.611115347901	868.845266283900	388.912109322553	580.799235701959	771.628559008990	317.949699315337	654.708051680320	775.501091056034	212.486554777531	597.040320407486	593.064155448816	85.121385979880	583.984735288154	773.789917747118	104.623794056400	613.473780628958	676.002851979433	61.205373821704	655.369753290556	879.384188825567	36.290780074353	639.323386833086	867.590051005461	37.862157475651	389.931147079938	948.386808650095	35.281897298251	315.269255701329	1028.392694024683	97.486000272928	349.355824709443	1158.621789570633	48.919913427934	333.098994798978	794.494469333832	1067.626716423551	198.788567366929	850.769059873649	812.635968112494	202.450009696528	1169.799000233798	1150.617966429502	682.862592778217	1300.326008377087	1297.115947136337	533.542476063209	
37	24.034285714286	743.078105984899	1016.721734835321	502.100222857726	920.389438958474	1410.366118577207	261.163824350253	1046.415562279429	1345.612186513805	407.099844335586	1001.298773872418	1441.982908145592	583.039218311034	940.514844811925	1486.469736373506	410.016119716932	979.607722092564	935.481363383815	588.703210596835	930.960416264876	948.562398193643	318.851653958562	978.988354900806	721.744914001420	563.662181555848	888.422364333736	625.533743450224	637.285649513362	943.547022250321	559.623749893001	551.440958359544	925.640109818084	465.048115833193	565.129667057120	1001.563374341273	759.637838811740	353.213657519790	930.845457314262	634.164784719212	291.405541421506	1028.071542258521	569.258980520752	351.629365604041	1037.487825308344	499.119882021522	358.205498676106	1014.269906403181	424.272013412862	348.523251974596	930.925252361668	307.352103236150	291.844293628982	986.913060363005	196.495410665311	361.305920073965	865.845780427795	391.362117528721	580.464978235725	767.986086119232	321.151062052697	654.023242462554	771.944686773493	215.136503580712	597.015306326302	588.956648190184	89.571622830188	583.774686547724	769.860754511237	105.397165110416	613.584578307402	671.286440896140	63.872385669672	655.178388191839	873.753969305384	36.138016679443	639.248359540592	861.959206023129	37.878114969223	389.875346164677	942.789449161828	35.369708464886	315.306875860612	1022.869177155657	97.434543827070	349.402885771554	1153.099207372738	48.627898093996	333.180037307790	798.997000662292	1068.063453830579	193.272096088945	866.008547287232	815.666421518752	196.530147487328	1168.601862755383	1151.617622984171	679.630006112924	1304.282296796789	1292.848845382865	529.069086504336	
38	24.053571428571	743.756723695904	1018.637056635045	497.971718180049	921.098425938176	1412.378883554134	257.375418177696	1046.701049534111	1347.725441316038	403.714349711957	1001.032506691790	1444.209818162932	579.435365848286	940.520930502605	1488.484908436577	406.332259409169	979.934267795694	937.347224801515	585.242582771753	931.959331171852	950.225470886339	315.296298924020	978.112862375435	723.402286426593	561.450697633076	886.634003979835	628.091811826483	635.477873429913	941.746474895164	561.362802383880	550.330303947205	923.129880450145	466.936515766211	564.581782195694	1000.546603666512	759.262313149645	350.307404562548	928.301978938286	634.415494860579	289.066870014402	1024.341902198637	568.603961568181	350.064370460342	1032.914182612370	498.737818258156	357.093405585133	1009.622388739563	424.212978074286	347.584213431117	926.328547962876	307.253696655734	291.058091249443	981.681739576286	196.513127317996	361.149870191616	863.121285373283	393.740502602324	580.058434420819	764.619759552609	324.313208340018	653.299778629556	768.572756471112	217.740570324182	596.964315473036	584.974123535132	94.055961022663	583.589452832239	765.996457507470	106.138896729105	613.704475715699	666.642930280167	66.545922335208	654.999257445430	868.121159973740	36.027406407092	639.180480661612	856.346569700055	37.942048034396	389.849919084052	937.205089555293	35.488003201218	315.392055985859	1017.411461869707	97.346580349395	349.513735007489	1147.616055117412	48.124156174819	333.265148898687	803.782803829246	1068.649284553819	187.635986025808	881.086379993929	819.155631439675	190.236383902236	1166.940666877286	1152.513616367859	677.114777417425	1309.248400496432	1286.924730441372	525.627069734332	
39	24.072857142857	744.289519461628	1020.330783618712	493.757328770464	921.725931138072	1414.461035864865	253.932716362577	1046.769218032415	1349.834327460884	400.755354214236	1000.372365661963	1446.321053415791	576.259064144672	940.333866192733	1490.447216091470	403.071857056656	980.119202224319	939.125279059500	581.816984547961	933.004797313497	951.865840659120	311.747963893245	977.371730424027	725.033197933098	559.248362007462	885.041555322870	630.514945441726	633.580312914707	940.269041906327	563.032439120125	549.153590047777	921.042595490266	468.682076170912	563.954115656474	999.712191255963	758.878954430653	347.595752145498	926.115008647072	634.583146603017	286.858079102190	1020.940946538762	567.931799307289	348.768584985954	1028.705583415891	498.292331757913	356.256807187943	1005.295111642232	424.112401692171	346.883199500337	922.058388377263	307.172941796480	290.377259464221	976.590394146617	196.494488190430	361.135047782807	860.729845401264	395.940477378492	579.551176434315	761.560804355336	327.366645156782	652.531611220640	765.388699889351	220.233490634154	596.887454831447	581.079979578332	98.517382168260	583.459247332895	762.178800626274	106.843691424709	613.843460540778	662.057805245845	69.188186049271	654.855559017769	862.502442421180	35.953637732978	639.116901776292	850.727711831698	38.059929686028	389.866248535185	931.606352003841	35.637985080497	315.531812395160	1011.989976496218	97.227994330373	349.692528269523	1142.141675322219	47.423257883475	333.355489907388	808.952314263118	1069.299156269545	181.916561087316	895.816174578666	822.890649577572	183.688833702334	1164.727503345784	1153.126253433694	675.147694688971	1315.077216362733	1278.989420299959	523.318348265048	
